<?xml version="1.0" standalone="no"?>
<!DOCTYPE svg PUBLIC "-//W3C//DTD SVG 20010904//EN"
 "http://www.w3.org/TR/2001/REC-SVG-20010904/DTD/svg10.dtd">
<svg version="1.0" xmlns="http://www.w3.org/2000/svg"
 width="256.000000pt" height="245.000000pt" viewBox="0 0 256.000000 245.000000"
 preserveAspectRatio="xMidYMid meet">

<g transform="translate(0.000000,245.000000) scale(0.100000,-0.100000)"
fill="#000000" stroke="none">
<path d="M1675 2231 c-76 -35 -125 -111 -125 -194 0 -24 6 -50 13 -59 6 -9 69
-46 139 -83 l127 -66 36 16 c19 10 35 21 35 26 0 4 -25 25 -55 46 -66 46 -78
71 -66 136 5 26 11 51 15 54 3 4 47 -8 96 -25 101 -35 106 -32 71 43 -49 107
-180 155 -286 106z"/>
<path d="M1514 1871 c-61 -37 -131 -146 -226 -356 -86 -187 -100 -270 -59
-326 l22 -29 -230 0 c-257 0 -253 1 -242 -70 l6 -35 355 0 355 0 3 21 3 22 80
-26 c44 -15 78 -31 76 -37 -2 -5 -28 -92 -58 -192 l-54 -183 -60 0 c-70 0
-120 25 -136 68 -16 40 14 137 67 218 24 37 44 69 44 70 0 10 -639 3 -645 -6
-4 -6 -74 -10 -178 -10 -95 0 -178 -4 -185 -9 -8 -5 -12 -17 -10 -27 3 -17 17
-19 157 -24 l155 -5 -42 -28 -42 -27 -250 0 c-215 0 -251 -2 -256 -15 -4 -8
-1 -22 6 -30 10 -12 48 -15 211 -15 l199 0 -16 -25 -16 -25 -252 -2 -251 -3 0
-25 0 -25 223 -3 c122 -1 222 -6 222 -10 0 -4 -7 -15 -14 -24 -11 -15 -30 -18
-118 -18 -110 0 -138 -10 -124 -45 4 -12 25 -15 106 -15 94 0 101 -1 95 -19
-3 -10 -3 -26 1 -35 6 -15 68 -16 726 -16 l719 0 -7 -35 c-4 -24 -2 -35 5 -35
7 0 152 75 322 166 l310 167 -3 31 c-4 45 -87 85 -191 93 l-75 6 -62 221 c-34
121 -64 229 -67 239 -4 16 0 17 34 11 81 -16 77 -20 92 94 8 61 10 107 5 112
-5 5 -58 2 -124 -7 -92 -12 -118 -19 -131 -35 -14 -19 -23 -20 -85 -14 -128
13 -117 4 -144 114 -41 173 -48 191 -83 212 -42 26 -121 26 -163 1z m156 -346
c12 -31 30 -60 39 -64 9 -5 78 -15 153 -22 l137 -13 8 -45 c12 -75 8 -341 -6
-406 -18 -84 -63 -175 -112 -225 -45 -47 -136 -93 -172 -88 -23 3 -22 7 61
213 47 117 84 227 85 247 2 58 -28 80 -198 143 -82 31 -154 60 -158 65 -9 8
120 250 133 250 4 0 18 -25 30 -55z"/>
<path d="M646 1781 c-10 -11 -27 -73 -44 -162 l-27 -144 -70 -5 c-67 -5 -70
-6 -70 -30 0 -24 3 -25 63 -28 58 -3 62 -4 62 -27 l0 -25 -119 0 c-124 0 -149
-8 -135 -44 5 -13 24 -16 121 -16 l114 0 -3 -27 -3 -28 -174 2 c-115 2 -179
-1 -188 -8 -18 -16 -16 -46 3 -53 9 -3 219 -6 468 -6 421 0 454 1 469 18 23
25 115 557 100 580 -9 15 -40 17 -280 20 -254 2 -271 1 -287 -17z"/>
<path d="M2405 708 c-33 -17 -62 -32 -64 -34 -2 -2 11 -20 29 -40 29 -34 32
-42 28 -89 -5 -63 -35 -108 -88 -135 -95 -48 -190 0 -190 97 0 24 -2 43 -5 43
-2 0 -34 -16 -70 -36 -72 -40 -70 -34 -39 -121 39 -108 178 -161 308 -117 62
21 153 105 183 169 30 65 32 180 4 241 -10 23 -23 44 -27 47 -5 3 -36 -9 -69
-25z"/>
<path d="M520 468 c0 -39 33 -114 63 -146 66 -71 198 -89 292 -40 73 37 147
119 175 192 l10 26 -64 0 c-61 0 -64 -1 -87 -34 -40 -58 -115 -91 -171 -76
-41 12 -75 46 -83 81 -6 28 -8 29 -71 29 l-64 0 0 -32z"/>
</g>
</svg>
