<?xml version="1.0" standalone="no"?>
<!DOCTYPE svg PUBLIC "-//W3C//DTD SVG 20010904//EN"
 "http://www.w3.org/TR/2001/REC-SVG-20010904/DTD/svg10.dtd">
<svg version="1.0" xmlns="http://www.w3.org/2000/svg"
 width="256.000000pt" height="245.000000pt" viewBox="0 0 256.000000 245.000000"
 preserveAspectRatio="xMidYMid meet">

<g transform="translate(0.000000,245.000000) scale(0.100000,-0.100000)"
fill="#000000" stroke="none">
<path d="M1250 1700 c-11 -11 -20 -28 -20 -38 0 -15 -14 -20 -77 -31 -269 -45
-502 -211 -623 -442 -53 -101 -68 -145 -89 -253 -17 -87 -18 -90 -47 -93 -29
-4 -64 -35 -64 -57 0 -6 7 -22 16 -34 l15 -22 918 0 c877 0 919 1 934 18 36
39 12 92 -43 97 l-34 2 -13 82 c-27 175 -105 323 -243 461 -139 139 -283 212
-474 242 -69 10 -76 14 -76 34 0 25 -24 54 -46 54 -8 0 -23 -9 -34 -20z"/>
</g>
</svg>
